name rise38.3101peak57.3503fall81.6963.mot
datacolumns 19
datarows 15
range 12.49829300000000 12.52162000000000
endheader
time	ground_force1_vx	ground_force1_vy	ground_force1_vz	ground_force1_px	ground_force1_py	ground_force1_pz	ground_force2_vx	ground_force2_vy	ground_force2_vz	ground_force2_px	ground_force2_py	ground_force2_pz	ground_torque1_x	ground_torque1_y	ground_torque1_z	ground_torque2_x	ground_torque2_y	ground_torque2_z	
12.49829300000000	0.07349400000000	682.45446200000004	42.15689100000000	0.25468200000000	0.00000000000000	0.10080200000000	0.00000000000000	0.00000000000000	0.00000000000000	0.00000000000000	0.00000000000000	0.00000000000000	0.00000000000000	21.03765400000000	0.00000000000000	0.00000000000000	0.00000000000000	0.00000000000000	
12.49996100000000	-0.22960000000000	683.77962900000000	42.19157100000000	0.25436600000000	0.00000000000000	0.10076500000000	0.00000000000000	0.00000000000000	0.00000000000000	0.00000000000000	0.00000000000000	0.00000000000000	0.00000000000000	21.12844000000000	0.00000000000000	0.00000000000000	0.00000000000000	0.00000000000000	
12.50162800000000	-0.54426900000000	685.13247500000000	42.22996900000000	0.25404800000000	0.00000000000000	0.10072900000000	0.00000000000000	0.00000000000000	0.00000000000000	0.00000000000000	0.00000000000000	0.00000000000000	0.00000000000000	21.22424800000000	0.00000000000000	0.00000000000000	0.00000000000000	0.00000000000000	
12.50329500000000	-0.87104600000000	686.51099599999998	42.27166700000000	0.25372400000000	0.00000000000000	0.10069400000000	0.00000000000000	0.00000000000000	0.00000000000000	0.00000000000000	0.00000000000000	0.00000000000000	0.00000000000000	21.32476400000000	0.00000000000000	0.00000000000000	0.00000000000000	0.00000000000000	
12.50496100000000	-1.21042600000000	687.91328699999997	42.31625700000000	0.25339200000000	0.00000000000000	0.10065900000000	0.00000000000000	0.00000000000000	0.00000000000000	0.00000000000000	0.00000000000000	0.00000000000000	0.00000000000000	21.42967800000000	0.00000000000000	0.00000000000000	0.00000000000000	0.00000000000000	
12.50663200000000	-1.56285600000000	689.33755299999996	42.36334400000000	0.25304900000000	0.00000000000000	0.10062600000000	0.00000000000000	0.00000000000000	0.00000000000000	0.00000000000000	0.00000000000000	0.00000000000000	0.00000000000000	21.53867900000000	0.00000000000000	0.00000000000000	0.00000000000000	0.00000000000000	
12.50829400000000	-1.92873700000000	690.78210700000000	42.41254600000000	0.25269000000000	0.00000000000000	0.10059300000000	0.00000000000000	0.00000000000000	0.00000000000000	0.00000000000000	0.00000000000000	0.00000000000000	0.00000000000000	21.65145800000000	0.00000000000000	0.00000000000000	0.00000000000000	0.00000000000000	
12.50995600000000	-2.30842000000000	692.24536999999998	42.46349200000000	0.25231500000000	0.00000000000000	0.10056200000000	0.00000000000000	0.00000000000000	0.00000000000000	0.00000000000000	0.00000000000000	0.00000000000000	0.00000000000000	21.76771100000000	0.00000000000000	0.00000000000000	0.00000000000000	0.00000000000000	
12.51162000000000	-2.70220300000000	693.72587299999998	42.51583100000000	0.25192000000000	0.00000000000000	0.10053300000000	0.00000000000000	0.00000000000000	0.00000000000000	0.00000000000000	0.00000000000000	0.00000000000000	0.00000000000000	21.88713700000000	0.00000000000000	0.00000000000000	0.00000000000000	0.00000000000000	
12.51329400000000	-3.11033400000000	695.22225200000003	42.56922600000000	0.25150400000000	0.00000000000000	0.10050500000000	0.00000000000000	0.00000000000000	0.00000000000000	0.00000000000000	0.00000000000000	0.00000000000000	0.00000000000000	22.00944100000000	0.00000000000000	0.00000000000000	0.00000000000000	0.00000000000000	
12.51495900000000	-3.53300000000000	696.73325299999999	42.62335900000000	0.25106300000000	0.00000000000000	0.10047800000000	0.00000000000000	0.00000000000000	0.00000000000000	0.00000000000000	0.00000000000000	0.00000000000000	0.00000000000000	22.13433300000000	0.00000000000000	0.00000000000000	0.00000000000000	0.00000000000000	
12.51662100000000	-3.97033600000000	698.25772800000004	42.67792900000000	0.25059600000000	0.00000000000000	0.10045300000000	0.00000000000000	0.00000000000000	0.00000000000000	0.00000000000000	0.00000000000000	0.00000000000000	0.00000000000000	22.26152900000000	0.00000000000000	0.00000000000000	0.00000000000000	0.00000000000000	
12.51829300000000	-4.42241700000000	699.79462999999998	42.73265900000000	0.25010000000000	0.00000000000000	0.10042900000000	0.00000000000000	0.00000000000000	0.00000000000000	0.00000000000000	0.00000000000000	0.00000000000000	0.00000000000000	22.39075400000000	0.00000000000000	0.00000000000000	0.00000000000000	0.00000000000000	
12.51995400000000	-4.88925800000000	701.34301600000003	42.78729100000000	0.24957500000000	0.00000000000000	0.10040800000000	0.00000000000000	0.00000000000000	0.00000000000000	0.00000000000000	0.00000000000000	0.00000000000000	0.00000000000000	22.52174000000000	0.00000000000000	0.00000000000000	0.00000000000000	0.00000000000000	
12.52162000000000	-5.37081500000000	702.90203799999995	42.84159000000000	0.24901900000000	0.00000000000000	0.10038800000000	0.00000000000000	0.00000000000000	0.00000000000000	0.00000000000000	0.00000000000000	0.00000000000000	0.00000000000000	22.65422800000000	0.00000000000000	0.00000000000000	0.00000000000000	0.00000000000000	
